# xmcd
#
# Track frame offsets:
#	150
#	12732
#	33241
#	44319
#	60881
#	76702
#	87807
#	103908
#	119592
#	137458
#	155230
#	175796
#	188357
#	206915
#	219742
#	238010
#	256856
#
# Disc length: 3619 seconds
#
# Revision: 1
# Processed by: cddbd v1.5.2PL0 Copyright (c) Steve Scherf et al.
# Submitted via: audiograbber 1.83.01
#
DISCID=e20e2111
DTITLE=steve holy - no name
DYEAR=1352
DGENRE=country
TTITLE0=Tear One
TTITLE1=Blue Moon Out Tonight
TTITLE2=Break On Through
TTITLE3=Cold Kisses - Steve Holy
TTITLE4=don't make me beg
TTITLE5=Steve Holy - Driven
TTITLE6=Good Morning Beautiful
TTITLE7=I'm Not Breakin'
TTITLE8=Steve Holy - Just A Kiss
TTITLE9=Steve Holy - Just Another Day 
TTITLE10=Just Like The Moon
TTITLE11=Only Make Believe (Live)
TTITLE12=Rock A Bye Heart
TTITLE13=07 - She's One
TTITLE14=Steve Holy - The Hunger (1)
TTITLE15=You're Gonna Miss My Love
TTITLE16=If That's What You Want
EXTD=
EXTT0=
EXTT1=
EXTT2=
EXTT3=
EXTT4=
EXTT5=
EXTT6=
EXTT7=
EXTT8=
EXTT9=
EXTT10=
EXTT11=
EXTT12=
EXTT13=
EXTT14=
EXTT15=
EXTT16=
PLAYORDER=
